# xmcd
#
# Track frame offsets:
#	150
#	11702
#	20175
#	24398
#	34004
#	43415
#	53288
#	59182
#	68838
#	98026
#	110336
#	124409
#	132237
#
# Disc length: 2027 seconds
#
# Revision: 0
# Processed by: cddbd v1.5PL3 Copyright (c) Steve Scherf et al.
# Submitted via: EasyCDDAExtractor 5.0.4.1
#
DISCID=b707e90d
DTITLE=Adjudgemnet - At two o'Clock
DYEAR=2003
DGENRE=Country
TTITLE0=The Obituary of Happiness
TTITLE1=Pompous Ass
TTITLE2=Scream Inwards
TTITLE3=War is a Market
TTITLE4=The License
TTITLE5=Rival Firm
TTITLE6=
TTITLE7=Tongue tied
TTITLE8=Safe[+]
TTITLE9=Strategic Silence
TTITLE10=Fairytale
TTITLE11=TV 290
TTITLE12=Just another Victim
EXTD=
EXTT0=
EXTT1=
EXTT2=
EXTT3=
EXTT4=
EXTT5=
EXTT6=
EXTT7=
EXTT8=
EXTT9=
EXTT10=
EXTT11=
EXTT12=
PLAYORDER=
